####
#
# OBJ File Generated by Meshlab
#
####
# Object caixa_fix.obj
#
# Vertices: 8
# Faces: 12
#
####
mtllib ./caixa_fix.obj.mtl

vn 0.577350 0.577350 -0.577350
v -1.000000 -1.000000 1.000000
vn 0.577350 0.577350 0.577350
v -1.000000 -1.000000 -1.000000
vn -0.577350 0.577350 0.577350
v 1.000000 -1.000000 -1.000000
vn -0.577350 0.577350 -0.577350
v 1.000000 -1.000000 1.000000
vn 0.577350 -0.577350 -0.577350
v -1.000000 1.000000 1.000000
vn 0.577350 -0.577350 0.577350
v -1.000000 1.000000 -1.000000
vn -0.577350 -0.577350 0.577350
v 1.000000 1.000000 -1.000000
vn -0.577350 -0.577350 -0.577350
v 1.000000 1.000000 1.000000
# 8 vertices, 0 vertices normals


usemtl material_0
vt 0.000000 1.000000
vt 1.000000 0.000000
vt 0.000000 0.000000
f 1/1/1 6/2/6 5/3/5
f 2/1/2 7/2/7 6/3/6
f 3/1/3 8/2/8 7/3/7
f 4/1/4 5/2/5 8/3/8
f 4/1/4 2/2/2 1/3/1
f 5/1/5 7/2/7 8/3/8
vt 1.000000 1.000000
f 2/4/2 6/2/6 1/1/1
f 3/4/3 7/2/7 2/1/2
f 4/4/4 8/2/8 3/1/3
f 1/4/1 5/2/5 4/1/4
f 3/4/3 2/2/2 4/1/4
f 6/4/6 7/2/7 5/1/5
# 12 faces, 4 coords texture

# End of File
