####
#
# OBJ File Generated by Meshlab
#
####
# Object model_fix2.obj
#
# Vertices: 32
# Faces: 24
#
####
mtllib ./model_fix2.obj.mtl

vn -0.994150 0.001875 -0.107997
v 0.700227 -0.002444 -0.054701
vn -0.702961 0.704766 -0.095660
v 0.688999 -0.029548 -0.055174
vn -0.000017 0.995883 -0.090651
v 0.661891 -0.040774 -0.055370
vn 0.702956 0.704764 -0.095709
v 0.634783 -0.029548 -0.055174
vn 0.994155 0.001879 -0.107948
v 0.623554 -0.002444 -0.054701
vn 0.702969 -0.700981 -0.120249
v 0.634783 0.024660 -0.054228
vn 0.000001 -0.992115 -0.125327
v 0.661891 0.035887 -0.054032
vn -0.702990 -0.700967 -0.120210
v 0.688999 0.024660 -0.054228
vn -0.675350 -0.012859 0.737385
v 0.700227 -0.002101 -0.074349
vn -0.477626 0.464668 0.745625
v 0.688999 -0.029205 -0.074822
vn 0.000011 0.662380 0.749168
v 0.661891 -0.040431 -0.075018
vn 0.477561 0.464665 0.745669
v 0.634783 -0.029205 -0.074822
vn 0.675417 -0.012864 0.737324
v 0.623554 -0.002101 -0.074349
vn 0.477551 -0.490381 0.729021
v 0.634783 0.025003 -0.073875
vn -0.000002 -0.688165 0.725555
v 0.661891 0.036230 -0.073680
vn -0.477606 -0.490396 0.728975
v 0.688999 0.025003 -0.073875
vn 0.000000 -0.017449 0.999848
v 0.661891 -0.002101 -0.074349
vn -0.000002 -0.017451 0.999848
v 0.661891 -0.002101 -0.074349
vn 0.000002 -0.017451 0.999848
v 0.661891 -0.002101 -0.074349
vn 0.000000 -0.017449 0.999848
v 0.661891 -0.002101 -0.074349
vn 0.000000 -0.017485 0.999847
v 0.661891 -0.002101 -0.074349
vn 0.000035 -0.017451 0.999848
v 0.661891 -0.002101 -0.074349
vn -0.000035 -0.017451 0.999848
v 0.661891 -0.002101 -0.074349
vn 0.000000 -0.017485 0.999847
v 0.661891 -0.002101 -0.074349
vn 0.996003 -0.001564 0.089306
v 0.621981 -0.002191 -0.069184
vn 0.704290 -0.705719 0.077045
v 0.633670 0.026025 -0.068691
vn -0.000003 0.994288 0.106728
v 0.661891 -0.042095 -0.069880
vn 0.704292 0.702601 0.101612
v 0.633670 -0.030407 -0.069676
vn -0.995999 -0.001564 0.089357
v 0.701801 -0.002191 -0.069184
vn -0.704281 0.702618 0.101566
v 0.690111 -0.030407 -0.069676
vn -0.704279 -0.705735 0.077007
v 0.690111 0.026025 -0.068691
vn -0.000002 -0.997410 0.071930
v 0.661891 0.037713 -0.068487
# 32 vertices, 0 vertices normals


usemtl material_0
vt 0.000000 0.000000
vt 0.000000 0.000000
f 25/1/25 13/1/13 14/1/14 26/2/26
f 27/1/27 11/1/11 12/1/12 28/2/28
f 29/1/29 9/1/9 10/1/10 30/2/30
f 31/1/31 16/1/16 9/1/9 29/2/29
f 26/1/26 14/1/14 15/1/15 32/2/32
f 28/1/28 12/1/12 13/1/13 25/2/25
f 30/1/30 10/1/10 11/1/11 27/2/27
f 32/1/32 15/1/15 16/1/16 31/2/31
f 16/1/16 24/1/24 17/1/17 9/2/9
f 14/1/14 22/1/22 23/1/23 15/2/15
f 12/1/12 20/1/20 21/1/21 13/2/13
f 10/1/10 18/1/18 19/1/19 11/2/11
f 15/1/15 23/1/23 24/1/24 16/2/16
f 13/1/13 21/1/21 22/1/22 14/2/14
f 11/1/11 19/1/19 20/1/20 12/2/12
f 9/1/9 17/1/17 18/1/18 10/2/10
f 7/1/7 32/1/32 31/1/31 8/2/8
f 2/1/2 30/1/30 27/1/27 3/2/3
f 4/1/4 28/1/28 25/1/25 5/2/5
f 6/1/6 26/1/26 32/1/32 7/2/7
f 8/1/8 31/1/31 29/1/29 1/2/1
f 1/1/1 29/1/29 30/1/30 2/2/2
f 3/1/3 27/1/27 28/1/28 4/2/4
f 5/1/5 25/1/25 26/1/26 6/2/6
# 24 faces, 2 coords texture

# End of File
